<svg width="840" height="520" viewBox="0 0 840 520" fill="none" xmlns="http://www.w3.org/2000/svg">
  <defs>
    <linearGradient id="bg" x1="0" y1="0" x2="1" y2="1">
      <stop offset="0%" stop-color="#F7FAFF"/>
      <stop offset="100%" stop-color="#EFF4FF"/>
    </linearGradient>
    <linearGradient id="line" x1="0" y1="0" x2="1" y2="0">
      <stop offset="0%" stop-color="#0B5FFF"/>
      <stop offset="50%" stop-color="#0F9F95"/>
      <stop offset="100%" stop-color="#F08A24"/>
    </linearGradient>
  </defs>

  <rect x="18" y="18" width="804" height="484" rx="24" fill="url(#bg)" stroke="#CAD5EA"/>

  <g stroke="#D8E0F0" stroke-width="1">
    <path d="M80 108H760"/>
    <path d="M80 178H760"/>
    <path d="M80 248H760"/>
    <path d="M80 318H760"/>
    <path d="M80 388H760"/>
    <path d="M140 78V430"/>
    <path d="M260 78V430"/>
    <path d="M380 78V430"/>
    <path d="M500 78V430"/>
    <path d="M620 78V430"/>
    <path d="M740 78V430"/>
  </g>

  <path d="M96 370L184 332L260 344L346 260L438 278L528 214L610 236L690 178L744 190" stroke="url(#line)" stroke-width="5" fill="none" stroke-linecap="round"/>

  <g fill="#0B5FFF">
    <circle cx="96" cy="370" r="7"/>
    <circle cx="184" cy="332" r="7"/>
    <circle cx="260" cy="344" r="7"/>
    <circle cx="346" cy="260" r="7"/>
    <circle cx="438" cy="278" r="7"/>
    <circle cx="528" cy="214" r="7"/>
    <circle cx="610" cy="236" r="7"/>
    <circle cx="690" cy="178" r="7"/>
    <circle cx="744" cy="190" r="7"/>
  </g>

  <rect x="90" y="64" width="222" height="72" rx="14" fill="#FFFFFF" stroke="#D4DEEF"/>
  <rect x="112" y="86" width="120" height="8" rx="4" fill="#BCCCE7"/>
  <rect x="112" y="104" width="88" height="7" rx="3.5" fill="#0B5FFF" fill-opacity="0.72"/>

  <rect x="536" y="338" width="220" height="104" rx="18" fill="#FFFFFF" stroke="#D4DEEF"/>
  <rect x="560" y="366" width="128" height="8" rx="4" fill="#BCCCE7"/>
  <rect x="560" y="385" width="94" height="7" rx="3.5" fill="#0F9F95" fill-opacity="0.7"/>
  <circle cx="708" cy="387" r="16" fill="#F08A24" fill-opacity="0.22"/>
</svg>
